# xmcd CD database file
#
# Track frame offsets:
#	150
#	15515
#	42737
#
# Disc length: 798 seconds
#
# Revision: 7
# Processed by: cddbd v1.4PL0 Copyright (c) Steve Scherf et al.
# Submitted via: CDex 1.51
#
DISCID=1e031c03
DTITLE=Dionne Farris - I Know
DYEAR=1994
DGENRE=Pop
TTITLE0=I Know (Single Edit)
TTITLE1=I Know (Extended)
TTITLE2=I Know (NY Reprise Mix)
EXTD=YEAR: 1994
EXTT0=
EXTT1=
EXTT2=
PLAYORDER=
